<svg xmlns="http://www.w3.org/2000/svg" viewBox="0 0 458.29 314.11"><path d="M71.37,285.31l15-15.06h50.7a2,2,0,0,0,1.93,1.39,2.07,2.07,0,0,0,2.06-2.06,2.06,2.06,0,0,0-1.17-1.85,2,2,0,0,0-2.82,1.17H85.84L70.81,284H17.86l-14-14h0a2,2,0,0,0,.23-.93,2,2,0,0,0-.21-.89A2,2,0,0,0,0,269H0a2.06,2.06,0,0,0,2.06,2.06,2,2,0,0,0,.85-.2h0L17.3,285.31Zm66.95-15.73a.72.72,0,0,1,.35-.6.76.76,0,0,1,.36-.11.71.71,0,0,1,.71.71.76.76,0,0,1-.71.71.71.71,0,0,1-.71-.71Zm-135.6-.33-.06.14a.76.76,0,0,1-.23.24l0,0a.75.75,0,0,1-.33.1h0a.71.71,0,0,1-.52-.24h0a.68.68,0,0,1-.19-.47h0a.7.7,0,0,1,.35-.6.73.73,0,0,1,.36-.11.71.71,0,0,1,.66.47h0a.7.7,0,0,1,0,.25A.78.78,0,0,1,2.72,269.25Z" style="fill:#c5c9e0"/><path d="M96.24,299.59a2.06,2.06,0,1,0-1.93-2.73H19.5c0-.07-.05-.15-.08-.22a2,2,0,0,0-1-.95,2,2,0,0,0-2.94,1.84h0a2.05,2.05,0,0,0,4,.68h74.8A2.05,2.05,0,0,0,96.24,299.59Zm-.7-2a.69.69,0,0,1,.35-.6.61.61,0,0,1,.35-.11.7.7,0,0,1,.71.7.64.64,0,0,1-.11.36.69.69,0,0,1-.6.35.7.7,0,0,1-.7-.7Zm-77.37.35a.69.69,0,0,1-.6.35.7.7,0,0,1-.7-.71h0a.68.68,0,0,1,.35-.59.62.62,0,0,1,.35-.12.71.71,0,0,1,.71.71A.64.64,0,0,1,18.17,297.89Z" style="fill:#c5c9e0"/><path d="M384.37,247l-.19-.2H321.3c0-.07-.05-.15-.08-.22a2.06,2.06,0,0,0-3.91.89h0a2.06,2.06,0,0,0,4,.68h62.31l30.05,30.12.19.19h44.43v-1.35H414.43Zm-64.4.83a.69.69,0,0,1-.6.35.71.71,0,0,1-.71-.71h0a.7.7,0,0,1,.35-.59.67.67,0,0,1,.36-.12.79.79,0,0,1,.22.05l.08,0a.7.7,0,0,1,.41.63A.73.73,0,0,1,320,247.85Z" style="fill:#c5c9e0"/><path d="M388.52,236.35l-.2-.2h-67c0-.07-.05-.15-.08-.22a2.06,2.06,0,0,0-3.91.89h0a2.06,2.06,0,0,0,4,.68h66.45l30.05,30.12.2.19h40.28v-1.35H418.57Zm-68.55.83a.69.69,0,0,1-.6.35.71.71,0,0,1-.71-.71h0a.7.7,0,0,1,.35-.59.67.67,0,0,1,.36-.12.79.79,0,0,1,.22,0l.08,0a.7.7,0,0,1,.41.63A.73.73,0,0,1,320,237.18Z" style="fill:#c5c9e0"/><path d="M364.87,94.83h-36.2l0,.1a3,3,0,0,0-.12-.32,2.08,2.08,0,0,0-.95-1,2,2,0,0,0-2.95,1.85h0a2,2,0,0,0,4,.67h36.76l60-60.17h32.82V34.67H424.91Zm-37.53,1a.72.72,0,0,1-.6.36.71.71,0,0,1-.71-.71h0a.69.69,0,0,1,.35-.6.7.7,0,0,1,.36-.11.7.7,0,0,1,.7.71A.68.68,0,0,1,327.34,95.86Z" style="fill:#c5c9e0"/><path d="M366.72,181.84l-.2-.2H346.14a1,1,0,0,0-.08-.22,2.05,2.05,0,0,0-3.9.89h0a2.05,2.05,0,0,0,4,.68H366l46.33,46.43.19.2h45.81v-1.35H413Zm-21.84.69-.06.13h0a.68.68,0,0,1-.59.35.71.71,0,0,1-.71-.71h0a.7.7,0,0,1,.35-.59.64.64,0,0,1,.36-.11,1,1,0,0,1,.17,0h0a.49.49,0,0,1,.17.06.18.18,0,0,1,.07.05l.09.06a.69.69,0,0,1,.21.5A.78.78,0,0,1,344.88,182.53Z" style="fill:#c5c9e0"/><path d="M424.48,19l-16-16a2,2,0,0,0,.21-.89,2.12,2.12,0,0,0-.21-.9A2.07,2.07,0,0,0,406.63,0a2.05,2.05,0,0,0-2.05,2.06h0a2,2,0,0,0,2.94,1.85h0l16.39,16.43h34.37V19ZM407.3,2.28l-.06.13h0a.64.64,0,0,1-.22.24l0,0a.65.65,0,0,1-.34.1.54.54,0,0,1-.21,0l-.14-.07h0a.7.7,0,0,1-.35-.6h0a.7.7,0,0,1,.35-.6.69.69,0,0,1,.35-.11.72.72,0,0,1,.61.36h0a1,1,0,0,1,.07.15.41.41,0,0,1,0,.16.09.09,0,0,1,0,.05A.78.78,0,0,1,407.3,2.28Z" style="fill:#c5c9e0"/><path d="M386.19,312.63a2,2,0,0,0-.82-.17h0a2.06,2.06,0,0,0-2,1.65h1.46a.9.9,0,0,1,.2-.19h0v0a.67.67,0,0,1,.36-.12,1,1,0,0,1,.24,0h0a.57.57,0,0,1,.13.08.75.75,0,0,1,.14.17h1.47a2,2,0,0,0-.14-.43.4.4,0,0,0,0-.13l21.75-23.95h49.36v-1.35h-50Z" style="fill:#c5c9e0"/><path d="M425.39,98.39a1.92,1.92,0,0,0-.89-.22,2.06,2.06,0,0,0-2.06,2.06h0a2.06,2.06,0,1,0,3.9-.89L437,88.69h21.32V87.34H436.41Zm-.29,2.2a.7.7,0,0,1-1.31-.36h0a.7.7,0,0,1,.35-.59.65.65,0,0,1,.36-.12.71.71,0,0,1,.71.71A.76.76,0,0,1,425.1,100.59Z" style="fill:#c5c9e0"/><path d="M380.38,127.5H358.2L343.72,142h0a1.79,1.79,0,0,0-.65-.13A2.06,2.06,0,0,0,341,144h0a2.06,2.06,0,1,0,3.9-.89,1.37,1.37,0,0,0-.13-.2l0,0,14-14h21.06l13.8,13.83h64.67v-1.35H394.18Zm-36.71,16.8a.72.72,0,0,1-.6.36.71.71,0,0,1-.71-.71h0a.7.7,0,0,1,.35-.6l.1,0a.71.71,0,0,1,.26-.06.75.75,0,0,1,.26,0,.6.6,0,0,1,.13.09l.08.05a.74.74,0,0,1,.22.45h0s0,0,0,.07A.68.68,0,0,1,343.67,144.3Z" style="fill:#c5c9e0"/><path d="M328.71,158.61h0a1.48,1.48,0,0,0-.13-.35,2,2,0,0,0-3.9.89h0a2.06,2.06,0,0,0,3.95.81h15.19l14-14.06h0a2.19,2.19,0,0,0,.63.11,2.06,2.06,0,0,0,2-2.06,2.12,2.12,0,0,0-.21-.9,2.08,2.08,0,0,0-.95-1,2,2,0,0,0-2.95,1.85h0a2.09,2.09,0,0,0,.34,1.13l-13.5,13.53Zm-1.3.73a.77.77,0,0,1-.07.16.88.88,0,0,1-.23.24l-.07,0a.62.62,0,0,1-.3.09.71.71,0,0,1-.71-.71h0a.74.74,0,0,1,.71-.71.69.69,0,0,1,.44.17h0a.87.87,0,0,1,.19.23h0a.6.6,0,0,1,.07.3A.58.58,0,0,1,327.41,159.34ZM357.77,144a.7.7,0,0,1,.35-.6.73.73,0,0,1,.36-.11.7.7,0,0,1,.7.71.68.68,0,0,1-.1.35.9.9,0,0,1-.19.2s-.05.05-.09.06a.58.58,0,0,1-.32.1.71.71,0,0,1-.26,0,.56.56,0,0,1-.15-.1l-.06,0a.74.74,0,0,1-.22-.43h0a.44.44,0,0,1,0-.1Z" style="fill:#c5c9e0"/><path d="M368.09,111h-67c0-.07-.05-.15-.08-.22a2.1,2.1,0,0,0-1-1,2,2,0,0,0-.89-.21,2.07,2.07,0,0,0-2.06,2.06h0a2.06,2.06,0,0,0,4,.67h67.58L431,49.85h27.3V48.5H430.43Zm-68.36,1a.69.69,0,0,1-.6.36.71.71,0,0,1-.71-.71h0a.7.7,0,0,1,.34-.6.66.66,0,0,1,.36-.11.71.71,0,0,1,.71.71A.72.72,0,0,1,299.73,112Z" style="fill:#c5c9e0"/><path d="M413.33,175.42h0a2,2,0,0,0-2.94,1.85h0a2.06,2.06,0,1,0,3.9-.89h0l20.87-20.92h23.13v-1.35H434.6Zm-.21,2a1,1,0,0,1,0,.1.25.25,0,0,0,0,.07.69.69,0,0,1-.6.36.71.71,0,0,1-.71-.71h0a.7.7,0,0,1,.34-.6h0a.63.63,0,0,1,.35-.11.76.76,0,0,1,.27.05.91.91,0,0,1,.23.15.65.65,0,0,1,.15.23.67.67,0,0,1,.06.28A.57.57,0,0,1,413.12,177.45Z" style="fill:#c5c9e0"/><path d="M406.35,306.5h0a2,2,0,0,0-3,1.85h0a2.06,2.06,0,0,0,4.12,0,1.92,1.92,0,0,0-.22-.89h0l6.46-6.47h44.52v-1.35H413.21Zm-.2,1.95a.09.09,0,0,1,0,.05.61.61,0,0,1-.05.12l0,.08a.7.7,0,0,1-1.31-.35h0a.72.72,0,0,1,.35-.6h0a.62.62,0,0,1,.36-.12.59.59,0,0,1,.23.05h0a.54.54,0,0,1,.12.09.62.62,0,0,1,.25.28.19.19,0,0,1,0,.07.85.85,0,0,1,0,.17A.76.76,0,0,1,406.15,308.45Z" style="fill:#c5c9e0"/><path d="M418.7,187.54H392.11L377.58,173l-.1-.1a1.92,1.92,0,0,0,.22-.89,2.06,2.06,0,0,0-.21-.9,2.1,2.1,0,0,0-1-1,2,2,0,0,0-.89-.21,2.07,2.07,0,0,0-2.06,2h0a2,2,0,0,0,2.95,1.84l.43.44,14.6,14.62h27.7L441.11,167h17.18v-1.35H440.55Zm-42.46-15.2a.69.69,0,0,1-.6.35.7.7,0,0,1-.71-.7h0a.7.7,0,0,1,.34-.6.66.66,0,0,1,.36-.11.71.71,0,0,1,.71.71A.72.72,0,0,1,376.24,172.34Z" style="fill:#c5c9e0"/><path d="M403.68,112.6h32.26l11-11a1.37,1.37,0,0,1-1-.92l-10.57,10.6H403.67a1,1,0,0,0-.08-.22,2,2,0,0,0-.95-1,1.92,1.92,0,0,0-.89-.22,2.06,2.06,0,0,0-2.06,2.06h0a2.05,2.05,0,0,0,4,.68Zm-2.64-.68h0a.7.7,0,0,1,.35-.59.65.65,0,0,1,.36-.12.72.72,0,0,1,.71.71,1.29,1.29,0,0,1,0,.21l0,.08a.86.86,0,0,1-.07.1.66.66,0,0,1-.56.32A.71.71,0,0,1,401,111.92Z" style="fill:#c5c9e0"/><path d="M286.6,163.42a2,2,0,0,0,1-.29h0l9.62,9.64h59.35a2.07,2.07,0,1,0,0-1.35H297.8l-9.29-9.31a2.05,2.05,0,0,0-.07-1.65,2.08,2.08,0,0,0-.95-1,2,2,0,0,0-2.95,1.85h0A2.06,2.06,0,0,0,286.6,163.42Zm71.21,8.64a.72.72,0,0,1,.33-.59l.1-.05h0a.6.6,0,0,1,.27-.07.7.7,0,0,1,.71.7.64.64,0,0,1-.11.36.69.69,0,0,1-.6.35.7.7,0,0,1-.7-.7Zm-71.92-10.7a.7.7,0,0,1,.35-.6.73.73,0,0,1,.36-.11.7.7,0,0,1,.59.35h0a1,1,0,0,1,.07.15.4.4,0,0,1,0,.15.13.13,0,0,1,0,.06.78.78,0,0,1,0,.22l-.06.13h0a.64.64,0,0,1-.22.24l0,0a.64.64,0,0,1-.33.1h-.05a.7.7,0,0,1-.66-.7Z" style="fill:#c5c9e0"/><path d="M219.28,164.42a2,2,0,0,0,1.09-.32l0,0,32.26,32.32.2.2H363.23l51,51.14h0a2.05,2.05,0,0,0-.32,1.1h0a2.06,2.06,0,1,0,4.11,0,2.12,2.12,0,0,0-.21-.9,2.09,2.09,0,0,0-1.85-1.16,2.08,2.08,0,0,0-.66.12h0L364,195.49l-.2-.2H253.41l-32.18-32.24h0a2.21,2.21,0,0,0,.12-.68,2.12,2.12,0,0,0-.21-.9,2.05,2.05,0,0,0-3.9.9h0A2.06,2.06,0,0,0,219.28,164.42Zm196,84.46a.7.7,0,0,1,.35-.6.69.69,0,0,1,.35-.11.71.71,0,0,1,.71.71.61.61,0,0,1-.11.35.69.69,0,0,1-.6.36.7.7,0,0,1-.7-.71Zm-196.7-86.52a.7.7,0,0,1,.35-.6.69.69,0,0,1,.35-.11.75.75,0,0,1,.34.09v0a.52.52,0,0,1,.18.12.66.66,0,0,1,.15.22.75.75,0,0,1,.05.26.61.61,0,0,1-.11.35.69.69,0,0,1-.6.36.7.7,0,0,1-.7-.71Z" style="fill:#c5c9e0"/><path d="M381.45,256.93a2,2,0,0,0-2.82,1.18H319.09l-21.55,21.6H260.31l-16.14-16.17a2,2,0,0,0,.22-.91,2.12,2.12,0,0,0-.21-.9,2.05,2.05,0,0,0-3.9.9h0a2.06,2.06,0,0,0,2.05,2.06,2,2,0,0,0,.88-.21h0l16.54,16.58H298.1l21.55-21.6h59a2.05,2.05,0,1,0,3.78-1.57A2.08,2.08,0,0,0,381.45,256.93ZM243,262.85l-.06.13h0a.8.8,0,0,1-.22.23l0,0a.75.75,0,0,1-.33.1h0a.5.5,0,0,1-.13,0l-.11,0a.82.82,0,0,1-.2-.12.7.7,0,0,1-.27-.54h0a.7.7,0,0,1,.35-.6.69.69,0,0,1,.35-.11.72.72,0,0,1,.66.43h0a.64.64,0,0,1,.06.28A.78.78,0,0,1,243,262.85Zm138.16-3.72a.69.69,0,0,1-.6.36,1,1,0,0,1-.17,0h.05a.72.72,0,0,1-.36-.18.7.7,0,0,1-.21-.5s0-.06,0-.08a.79.79,0,0,1,.06-.22.59.59,0,0,0,0-.08.73.73,0,0,1,.22-.21.49.49,0,0,1,.18-.08h0a.41.41,0,0,1,.19,0,.71.71,0,0,1,.71.71A.69.69,0,0,1,381.16,259.13Z" style="fill:#c5c9e0"/><path d="M195.67,237.38a2,2,0,0,0,.85-.19l0,0,14,14h34.84l17.43,17.47v0a2.1,2.1,0,0,0-.2.87h0a2.06,2.06,0,1,0,3.9-.89,2,2,0,0,0-2.75-.95l-17.83-17.87H211.08l-13.57-13.59,0,0a2,2,0,0,0,.24-.94,1.92,1.92,0,0,0-.22-.89,2,2,0,0,0-.95-1,2,2,0,0,0-.89-.21,2.07,2.07,0,0,0-2.06,2h0A2.06,2.06,0,0,0,195.67,237.38ZM264,269.58a.7.7,0,0,1,.35-.6l.1,0a.56.56,0,0,1,.23-.05.64.64,0,0,1,.41.15l-.11-.11a.7.7,0,0,1,.43.65.68.68,0,0,1-.1.35.72.72,0,0,1-.61.36.71.71,0,0,1-.7-.71Zm-69-34.26a.7.7,0,0,1,.35-.59.66.66,0,0,1,.36-.11.7.7,0,0,1,.71.7.73.73,0,0,1-.11.36.69.69,0,0,1-.6.35.71.71,0,0,1-.71-.71Z" style="fill:#c5c9e0"/><path d="M221.56,260.78a2,2,0,0,0-2.83,1.19H195.39l-19.95,20H96.24v1.35H176l19.95-20h22.8a2,2,0,0,0,1.92,1.37,2.06,2.06,0,0,0,2.06-2.06,2.12,2.12,0,0,0-.21-.9A2.06,2.06,0,0,0,221.56,260.78Zm-.29,2.2a.69.69,0,0,1-.6.36.7.7,0,0,1-.7-.71h0a.7.7,0,0,1,.35-.6.69.69,0,0,1,.35-.11.71.71,0,0,1,.71.71A.61.61,0,0,1,221.27,263Z" style="fill:#c5c9e0"/><path d="M176.73,291.05a2.12,2.12,0,0,0-.9-.21,2.05,2.05,0,0,0-1.93,1.38H138.75l-16.46,16.5h0a1.92,1.92,0,0,0-.89-.22,2.08,2.08,0,0,0-2.06,2.06h0a2.06,2.06,0,1,0,3.91-.89l16.06-16.1H173.9a2.05,2.05,0,1,0,3.78-1.57A2.08,2.08,0,0,0,176.73,291.05ZM122,310.92a.7.7,0,0,1-1.31-.36h0A.7.7,0,0,1,121,310a.67.67,0,0,1,.36-.12.71.71,0,0,1,.71.71A.76.76,0,0,1,122,310.92Zm54.44-17.67a.71.71,0,0,1-.61.35l-.15,0h0a.49.49,0,0,1-.17-.06.42.42,0,0,1-.14-.09l0,0a.69.69,0,0,1-.21-.5h0a.66.66,0,0,1,.09-.31l0-.05a.76.76,0,0,1,.41-.31h0a.58.58,0,0,1,.19,0,.7.7,0,0,1,.71.7A.72.72,0,0,1,176.44,293.25Z" style="fill:#c5c9e0"/><path d="M121.28,292.9a2,2,0,0,0-.22-.9,2.08,2.08,0,0,0-1-.95,2,2,0,0,0-3,1.85h0a2,2,0,0,0,.21.88h0l-14.59,14.63H46.28L41,313.68h1.91l3.91-3.92h56.48l15-15a2.14,2.14,0,0,0,.91.22A2.07,2.07,0,0,0,121.28,292.9Zm-1.46.35a.7.7,0,0,1-1.31-.35h0a.71.71,0,0,1,.35-.6.73.73,0,0,1,.36-.11.71.71,0,0,1,.71.71A.72.72,0,0,1,119.82,293.25Z" style="fill:#c5c9e0"/></svg>