<?xml version="1.0" encoding="utf-8"?>
<!-- Generator: Adobe Illustrator 23.0.0, SVG Export Plug-In . SVG Version: 6.00 Build 0)  -->
<svg version="1.1" id="Layer_1" xmlns="http://www.w3.org/2000/svg" xmlns:xlink="http://www.w3.org/1999/xlink" x="0px" y="0px"
	 viewBox="0 0 1824 1824" style="enable-background:new 0 0 1824 1824;" xml:space="preserve">
<style type="text/css">
	.st0{fill:#446DC9;}
	.st1{fill:#FFFFFF;}
	.st2{clip-path:url(#SVGID_2_);}
	.st3{fill:#7E3C00;}
	.st4{fill:#023F54;}
	.st5{fill:#D7F2F9;}
	.st6{fill:#8E4A11;}
	.st7{fill:#212121;}
	.st8{fill:#521605;}
	.st9{fill:#E2E3E1;}
	.st10{fill:#050306;}
	.st11{fill:#0A0A0E;}
	.st12{fill:#E2E3E1;stroke:#000000;stroke-miterlimit:10;}
	.st13{fill:#541101;}
	.st14{fill:#C45858;}
</style>
<title>eShangazi</title>
<circle class="st0" cx="912" cy="912" r="912"/>
<circle class="st1" cx="912" cy="912" r="845.5"/>
<g>
	<defs>
		<circle id="SVGID_1_" cx="912" cy="912" r="845.5"/>
	</defs>
	<clipPath id="SVGID_2_">
		<use xlink:href="#SVGID_1_"  style="overflow:visible;"/>
	</clipPath>
	<g class="st2">
		<path class="st3" d="M1115.6,777.1c0,0-70.7,88-71.8,93.7s-41.6,63.6-40.5,68.2s63-24,71.7-42.8S1175.9,753.9,1115.6,777.1z"/>
		<path class="st0" d="M745.3,1067.8c0,0-44,46.6-162,98.5s-125.3,60.2-181.6,206.9s-62.3,168-62.3,168s184.1,162.3,405.3,249.5
			s574.2-62.1,582.9-65.4s196.1-152.5,196.1-152.5l-28.3-29.4c0,0-54.1-145.4-71.2-186.6s-54.7-158.9-161.7-185.6
			s-164.8-89.9-174.6-102.9s-152.5,209.2-152.5,209.2l-16.3,34.9c0,0-105.5-192.9-114.3-221.2S745.3,1067.8,745.3,1067.8z"/>
		<path class="st4" d="M1066.7,1036.2c0,0,90.4,61,114.4,312.7c0,0-124.4-107-232.2-90C948.9,1258.9,1074.3,1070,1066.7,1036.2z"/>
		<path class="st0" d="M1043.5,999.6c0,0,106,86.7,119.1,319.9c0,0-107-74.5-162.2-74c-7.2-0.6-48.4,19.2-64.9,32.2
			c0,0,46.1-97.7,70.9-135.5S1049.2,1005,1043.5,999.6z"/>
		<path class="st4" d="M888,1271.6c0,0-85-46.8-248.4,62.1c0,0,31-157.4,98.6-242.4L888,1271.6z"/>
		<path class="st0" d="M790,999.2c0,0,7.6,102.9,44.7,151.7c29.4,59.7,62,129.3,70.8,140.2s-63.8-72.1-125.3-56.4
			c-28.8,10.2-99.7,54.9-123.6,73.4c0,0-16.5,8.4,13.6-57.9s49.6-151.3,59.4-180.7S784,1004.1,790,999.2z"/>
		<path class="st4" d="M921.3,1769c0,0,2.9-199.4,2-241.9s-4.2-214.7-4.2-214.7s-3.3,101.6-2.7,130.3s-0.5,166-0.5,166l-3.3,163.4
			L921.3,1769z"/>
		<path class="st5" d="M1120.5,1463.3h113.7c9.8,0,17.8,8,17.8,17.8v58.1c0,9.8-8,17.8-17.8,17.8h-113.7c-9.8,0-17.8-8-17.8-17.8
			v-58.1C1102.7,1471.3,1110.7,1463.3,1120.5,1463.3z"/>
		<path class="st4" d="M1127.2,1472.6h26.1l0,0v40.3l0,0h-26.1c-6.6,0-12-5.4-12-12v-16.3C1115.2,1478,1120.6,1472.6,1127.2,1472.6z
			"/>
		<path class="st4" d="M1168.6,1477.5h64.3c1.5,0,2.7,1.2,2.7,2.7v2.2c0,1.5-1.2,2.7-2.7,2.7h-64.3c-1.5,0-2.7-1.2-2.7-2.7v-2.2
			C1165.9,1478.7,1167.1,1477.5,1168.6,1477.5z"/>
		<path class="st4" d="M1168.6,1489.5h64.3c1.5,0,2.7,1.2,2.7,2.7v2.2c0,1.5-1.2,2.7-2.7,2.7h-64.3c-1.5,0-2.7-1.2-2.7-2.7v-2.2
			C1165.9,1490.7,1167.1,1489.5,1168.6,1489.5z"/>
		<rect x="1120.1" y="1521.1" class="st4" width="113.3" height="4.4"/>
		<rect x="1120.1" y="1534.2" class="st4" width="113.3" height="4.4"/>
		<path class="st4" d="M1334.8,1311.9c0,0-43.6,238.6-5.4,355.2l-37.6,23.4c0,0-21.9-177.7,5.4-261.6S1334.8,1311.9,1334.8,1311.9z"
			/>
		<path class="st4" d="M482.1,1262.3c0,0,72.5,265.4,22.4,390.7l36.3,9.7c0,0,18.4-153.5-7.1-237.7S482.1,1262.3,482.1,1262.3z"/>
		<path class="st4" d="M931.5,1628.4c0.7,9.4,0.5,18.8-0.4,28.2c-1.5,18.3-5.7,38.2-14.3,55.1c-10.1,19.8-26.6,34.7-48.3,40.5
			c-35.2,9.3-73.9-3.3-106.1-17.2c-6.5-2.8-11.5-10.2-16.1-15.5s-8.9-10.9-13-16.6c-7.7-10.7-14.5-21.9-20.4-33.7
			c-10.5-21.1-17.9-43.7-22-66.9c-6.6-37.3-4.6-75.6,1.5-112.8c1.9-12,4.4-23.9,6.2-35.9c1.5-10.2,1.4-20.6,2.5-30.9
			c4.6-43.2,9.5-86.3,7.2-129.9c-1.4-25.7-5-51.6-12.6-76.2c-1.9-6-4-11.9-6.3-17.8c-1-2.4-2.3-4.8-2.6-7.3c-0.2-2.7-0.3-5.3-0.2-8
			c0.1-10.5,1.2-21.1,3.3-31.4c8.7-43.5,31.1-83.4,56.9-119c21.8-30.2,46.8-57.9,74.6-82.6c7.3-6.4,14.2-12.5,22.5-17.4
			c0.5-0.3,1-0.5,1.5-0.8c-1.3,0.6-0.6,0.2,0.2,0c1-0.3,1.9-0.5,2.9-0.7c0.6-0.1,1.1-0.2,1.7-0.3c0.3-0.1,0.7-0.1,1.1-0.2
			c0,0-0.9,0.1,0.1,0c1.5-0.2,3-0.3,4.5-0.4c19.7-1.3,39.4,1.8,58.4,6.6c28.3,7,55.2,19,79.3,35.3c29.9,20.5,54.8,47.6,72.7,79.1
			c11,19.4,19.6,40,25.8,61.4c3.4,11.7,6.2,23.5,9.5,35.2c2.9,10.1,5.7,20.2,8.2,30.3c8.3,33,12.6,66.2,11,100.3
			c-2.2,46.9-11,93.5-18.5,139.8c-8.3,51.6-15.9,103.3-19.3,155.5c-1.6,24.5-2.6,49.4,0,73.9c0.5,5.2,1.3,10.4,2.3,15.5
			c1.3,6.3,11,3.6,9.6-2.7c-0.4-2.1-0.8-4.2-1.1-6.3c-0.1-0.7-0.2-1.4-0.3-2c-0.2-1,0,0.3,0,0l-0.2-1.3c-0.2-1.7-0.4-3.4-0.6-5.2
			c-1-10.1-1.3-20.3-1.3-30.4c0-40.1,4.2-80.2,9.3-120c7.4-57.2,18.4-113.8,25.7-170.9c4.5-35.8,6.6-71.6,1.3-107.5
			c-2.9-18.4-6.8-36.7-11.9-54.6c-3-11.1-6.7-22.1-9.3-33.3c-2.8-12-6.3-23.9-10.4-35.6c-13.8-38.8-35.3-74.8-65-103.4
			c-42.3-40.3-97.2-64.9-155.5-69.7c-12.5-0.9-28.1-2.2-39.2,4.8c-9.5,6-18.1,13.8-26.4,21.3c-13.1,12-25.5,24.6-37.3,37.8
			c-29.4,33-56,69.5-74.4,109.8c-9.2,20.2-16.6,41.5-19.9,63.5c-1.7,10.6-2.4,21.4-2,32.2c0.3,6.3,3.3,11.7,5.5,17.6
			c2.3,6.1,4.3,12.4,6,18.7c13.4,48.9,12.3,100.8,7.8,150.9c-1.6,17.8-4,35.6-5.6,53.4c-0.9,9.8-1,18.5-2.6,27.6
			c-5.5,32.5-11.2,64.7-10.9,97.8c0.5,46.7,11.8,93,35.8,133.3c7.1,11.9,15.1,23.2,24,33.8c4.9,6.1,10.1,11.9,15.7,17.4
			c4.2,4,11.9,5.9,17.3,8c19.5,7.7,39.8,13.7,60.7,15.8c27.3,2.8,55.5-2.7,76.1-21.7c16.2-15,25.5-36,30.5-57.1
			c3.7-16.2,5.5-32.8,5.1-49.3c0-2.6-0.1-5.2-0.3-7.8C941,1622.1,931,1622,931.5,1628.4L931.5,1628.4z"/>
		<path class="st4" d="M852.4,952.4c-32.9,11-65.5,29.7-90.6,53.5c-19,18-34.3,41-38.1,67.3c-2,14.8-0.9,29.9,3.5,44.3
			c5.6,19,16,35.4,26.7,51.9c16.5,25.5,34.9,50.6,48.6,77.8c8.5,17,11.4,34.2,11.4,53.1c0,35.2-3.4,70.4-4.9,105.6
			c-1.7,41.7-3.2,85,6.2,126c5.3,23,15.3,45.5,34.5,60.2c17.1,13,38.5,18.4,59.2,22.4c14.1,2.7,28.5,5.8,42.9,6.3
			c16.8,0.5,33.6-2.8,49-9.6c32.5-14.4,55.4-44.3,66.4-77.5c6.6-19.8,9.1-41,8.5-61.9c-0.8-23.6-6.4-46.4-11.7-69.3
			c-8-34.6-17.1-70.2-14.5-106c2.8-39.1,21.3-74.7,42.4-106.9c7.6-11.6,15.7-22.7,23.8-33.9c4-5.5,7.5-11.4,10.3-17.7
			c5.3-11.8,8.1-24.7,8-37.6c-0.2-26.7-12-52-27.8-73c-18.1-24.2-41.5-44.2-67-60.3c-25.7-16.2-54.2-28.9-84-35.2
			c-25-5.3-52.5-6.7-76.7,3c-10.7,4.2-20.4,10.6-28.3,18.9c-4.4,4.7,2.6,11.8,7.1,7.1c36.2-38.2,100.2-22.7,142-3.9
			c27.1,12.1,52,28.5,73.8,48.6c19.6,18.3,37.2,40.4,45.8,66.1c7.8,23.5,6.4,48.4-6.1,70c-5.2,8.9-11.8,16.9-17.7,25.3
			c-7.2,10.2-14.2,20.6-20.7,31.3c-10.3,17-19.5,34.9-26,53.7c-10.8,31.6-11.2,64.1-6,96.8c3,18.5,7.2,36.8,11.4,55
			c5.1,22,10.7,43.9,11.6,66.6c1.5,37.7-8.1,77.3-33.8,105.8c-22.2,24.9-55,37.6-88.2,34.1c-12.5-1.3-25.2-3.9-37.5-6.4
			c-10.4-2-20.6-4.8-30.5-8.5c-18.3-7-33.1-20.7-41.5-38.4c-13.9-28.7-15.5-63.2-16.1-94.4c-0.8-43,2.4-86,4.7-128.9
			c1.2-21.8,3-44.6-2.1-66c-4.8-20.4-16.4-38.6-27.5-56c-9.5-15-19.3-29.8-29-44.7c-10.4-16.1-21-32-26.8-50.4
			c-8.2-26.4-5-53.6,9.6-77c12.8-20.6,32-36.8,52.3-49.8c15.2-9.7,31.3-17.9,48.1-24.6c2.6-1,5.2-2,7.8-2.9
			C861.1,960,858.5,950.3,852.4,952.4z"/>
		
			<ellipse transform="matrix(0.7071 -0.7071 0.7071 0.7071 -869.9765 1258.9509)" class="st4" cx="1084.7" cy="1679.6" rx="65.9" ry="65.9"/>
		<circle class="st1" cx="1084.7" cy="1679.6" r="51.2"/>
		<circle class="st5" cx="1084.7" cy="1679.6" r="49.6"/>
		<circle class="st4" cx="936" cy="1613.7" r="28.3"/>
		<path class="st6" d="M738.3,630.7c0,0-51-23.1-34.5,121.5c7.2,48.1,2.8,65.2,34.4,61c1.1,30.7,1.5,39.8,13.8,63
			s32.1,29.2,34.2,73.6c0,0,11.6,92.3,17.8,128.8s112.7,231.2,115.5,233.6s38.3-86.7,63.6-127.1c25.3-40.5,58.5-111,60.4-182.5
			c0,0,1.9-31.2,3-36.6s3.5-6.6,18.6-21.3s28.7-23.8,35-46.5c4.2-10.7,2.1-11.4,14.6-2.8s29.3-15.6,44.8-51.5s66.8-81.7,15.6-142.7
			c0,0-5.4-86.1-5.4-88.3s-52.3-228.8-121-241.9S942,360.1,887.5,396.1S738.3,630.7,738.3,630.7z"/>
		<path class="st7" d="M1037.6,629c0,0,29.3,3.8,66.9,8.6s47.5,38.8,47.5,38.8s-13.3-25.2-67.4-22.5S1037.6,629,1037.6,629z"/>
		<path class="st7" d="M915.4,606.4c0,0-29.1-5.5-66.2-12.7S792,615.9,792,615.9s20.5-19.8,71-0.3S915.4,606.4,915.4,606.4z"/>
		<path class="st8" d="M775,908.3c0,0,93.4,169.4,241.6,69.1C1016.6,977.4,892.4,1105.5,775,908.3z"/>
		<path class="st9" d="M813.3,675.3c0,0,16.6-35.7,52-17.4c19.2,18.3,24.8,25.5,28.9,39.3S806.8,689.8,813.3,675.3z"/>
		<path class="st10" d="M814.5,672.4c0,0,28.3-16.2,42-5.7s32,25.4,33,18.8S848.4,619.1,814.5,672.4z"/>
		<circle class="st11" cx="854.5" cy="676.9" r="12.9"/>
		<circle class="st12" cx="849.6" cy="682.5" r="7.3"/>
		<path class="st9" d="M1103.5,733.1c0,0,1.8-40.2-38.8-40.5c-26,7.5-34.6,11.4-44.8,21.9S1102.4,749.4,1103.5,733.1z"/>
		<path class="st10" d="M1103.7,730c0,0-18-28.1-35.4-25.1s-41,7.9-38.8,1.4S1098.3,665.5,1103.7,730z"/>
		<circle class="st11" cx="1065.4" cy="715.1" r="13.2"/>
		<circle class="st12" cx="1060.7" cy="721.1" r="7.4"/>
		<path class="st13" d="M898.2,788.9c0,0,19.1,20.9,51.5,12c36.9-10.1,42.9-1.6,42.9-1.6s-7.5,0.7-35.4,16.1
			C918.9,836.5,898.2,788.9,898.2,788.9z"/>
		<path class="st14" d="M849.3,840.6c0,0,90.4-5.5,149.3,32.7c0,0,26.2-9.8,25.1,0s-70.8,75.2-98.1,75.2s-56.3-12.3-68.5-45.9
			c-14.4-34.7-23.9-58.1-22.4-62.2S849.3,840.6,849.3,840.6z"/>
		<path class="st1" d="M853.7,851.5c0,0,62.4,30.8,108,32.3c35.8-1.8,42.9-1.5,36.7,3.3s-53.4,26-76.2,25.2S850.4,861.3,853.7,851.5
			z"/>
		<path class="st13" d="M727.9,687.5c0,0-14.2-62.1-17.4,14.2c3.3,45.8,2.2,42.5,8.7,49C719.1,750.7,709.3,654.8,727.9,687.5z"/>
		<path class="st13" d="M1162.6,759.5c0,0,30.5-28.3,13.1,17.4s-28.3,57.8-33.8,62.1S1195.3,760.5,1162.6,759.5z"/>
		<path class="st7" d="M752.1,721.1c0,0-74.4-199.6,39.5-303.5S902.1,389.4,919,292.8c63.8-83.6,146.8-78.3,193-27
			s48.4,100.1,41.9,113.9s-20.8,24.3-7.2,38.1s151,155.7-11.7,359c0,0,3.7-32,17.5-95.2s-146.9-257-146.9-257s-114.7,39.1-227,143.7
			c-13.2,17.5-12.1,74.2-15.4,104.7S752.1,721.1,752.1,721.1z"/>
	</g>
</g>
</svg>
